<svg width="296" height="76" viewBox="0 0 296 76" fill="none" xmlns="http://www.w3.org/2000/svg">
<path d="M1.134 16V6.732H5.04C5.59067 6.732 6.118 6.83933 6.622 7.054C7.13533 7.25933 7.59267 7.56267 7.994 7.964C8.39533 8.36533 8.71267 8.85067 8.946 9.42C9.17933 9.98933 9.296 10.638 9.296 11.366C9.296 12.094 9.17933 12.7427 8.946 13.312C8.71267 13.8813 8.39533 14.3667 7.994 14.768C7.59267 15.1693 7.13533 15.4773 6.622 15.692C6.118 15.8973 5.59067 16 5.04 16H1.134ZM2.184 15.006H4.998C5.66067 15.006 6.23467 14.838 6.72 14.502C7.20533 14.166 7.57867 13.7227 7.84 13.172C8.11067 12.6213 8.246 12.0193 8.246 11.366C8.246 10.7033 8.11067 10.0967 7.84 9.546C7.57867 8.99533 7.20533 8.55667 6.72 8.23C6.23467 7.894 5.66067 7.726 4.998 7.726H2.184V15.006ZM13.5118 16.112C12.8024 16.112 12.1864 15.9533 11.6638 15.636C11.1411 15.3093 10.7398 14.8707 10.4598 14.32C10.1798 13.7693 10.0398 13.1627 10.0398 12.5C10.0398 11.828 10.1798 11.2213 10.4598 10.68C10.7398 10.1293 11.1411 9.69533 11.6638 9.378C12.1864 9.05133 12.8024 8.888 13.5118 8.888C14.2304 8.888 14.8464 9.05133 15.3598 9.378C15.8824 9.69533 16.2838 10.1293 16.5638 10.68C16.8438 11.2213 16.9838 11.828 16.9838 12.5C16.9838 13.1627 16.8438 13.7693 16.5638 14.32C16.2838 14.8707 15.8824 15.3093 15.3598 15.636C14.8464 15.9533 14.2304 16.112 13.5118 16.112ZM13.5118 15.16C14.0344 15.16 14.4731 15.0387 14.8278 14.796C15.1918 14.5533 15.4671 14.2313 15.6538 13.83C15.8404 13.4193 15.9338 12.976 15.9338 12.5C15.9338 12.0147 15.8404 11.5713 15.6538 11.17C15.4671 10.7687 15.1918 10.4467 14.8278 10.204C14.4731 9.96133 14.0344 9.84 13.5118 9.84C12.9984 9.84 12.5598 9.96133 12.1958 10.204C11.8318 10.4467 11.5564 10.7687 11.3698 11.17C11.1831 11.5713 11.0898 12.0147 11.0898 12.5C11.0898 12.976 11.1831 13.4193 11.3698 13.83C11.5564 14.2313 11.8318 14.5533 12.1958 14.796C12.5598 15.0387 12.9984 15.16 13.5118 15.16ZM19.3174 16L17.1194 9H18.2394L19.9194 14.698L21.6974 9H22.8454L24.6234 14.698L26.3034 9H27.4234L25.2254 16H24.0214L22.2714 10.414L20.5214 16H19.3174ZM28.1247 16V9H29.1747V10.092C29.4267 9.756 29.7347 9.47133 30.0987 9.238C30.4627 9.00467 30.9294 8.888 31.4987 8.888C31.984 8.888 32.4367 9.00467 32.8567 9.238C33.286 9.462 33.6314 9.80267 33.8927 10.26C34.1634 10.708 34.2987 11.2633 34.2987 11.926V16H33.2487V11.954C33.2487 11.3193 33.0667 10.8107 32.7027 10.428C32.3387 10.036 31.8674 9.84 31.2887 9.84C30.8967 9.84 30.542 9.92867 30.2247 10.106C29.9074 10.2833 29.6507 10.5353 29.4547 10.862C29.268 11.1793 29.1747 11.548 29.1747 11.968V16H28.1247ZM35.7744 16V6.2H36.8244V16H35.7744ZM41.4035 16.112C40.6941 16.112 40.0781 15.9533 39.5555 15.636C39.0328 15.3093 38.6315 14.8707 38.3515 14.32C38.0715 13.7693 37.9315 13.1627 37.9315 12.5C37.9315 11.828 38.0715 11.2213 38.3515 10.68C38.6315 10.1293 39.0328 9.69533 39.5555 9.378C40.0781 9.05133 40.6941 8.888 41.4035 8.888C42.1221 8.888 42.7381 9.05133 43.2515 9.378C43.7741 9.69533 44.1755 10.1293 44.4555 10.68C44.7355 11.2213 44.8755 11.828 44.8755 12.5C44.8755 13.1627 44.7355 13.7693 44.4555 14.32C44.1755 14.8707 43.7741 15.3093 43.2515 15.636C42.7381 15.9533 42.1221 16.112 41.4035 16.112ZM41.4035 15.16C41.9261 15.16 42.3648 15.0387 42.7195 14.796C43.0835 14.5533 43.3588 14.2313 43.5455 13.83C43.7321 13.4193 43.8255 12.976 43.8255 12.5C43.8255 12.0147 43.7321 11.5713 43.5455 11.17C43.3588 10.7687 43.0835 10.4467 42.7195 10.204C42.3648 9.96133 41.9261 9.84 41.4035 9.84C40.8901 9.84 40.4515 9.96133 40.0875 10.204C39.7235 10.4467 39.4481 10.7687 39.2615 11.17C39.0748 11.5713 38.9815 12.0147 38.9815 12.5C38.9815 12.976 39.0748 13.4193 39.2615 13.83C39.4481 14.2313 39.7235 14.5533 40.0875 14.796C40.4515 15.0387 40.8901 15.16 41.4035 15.16ZM48.9418 16.112C48.2605 16.112 47.6631 15.9533 47.1498 15.636C46.6458 15.3093 46.2538 14.8707 45.9738 14.32C45.6938 13.7693 45.5538 13.1627 45.5538 12.5C45.5538 11.828 45.6938 11.2213 45.9738 10.68C46.2538 10.1293 46.6458 9.69533 47.1498 9.378C47.6631 9.05133 48.2605 8.888 48.9418 8.888C49.5205 8.888 50.0151 9 50.4258 9.224C50.8458 9.448 51.1865 9.75133 51.4478 10.134V9H52.4978V16H51.4478V14.88C51.1865 15.2533 50.8458 15.552 50.4258 15.776C50.0151 16 49.5205 16.112 48.9418 16.112ZM49.0818 15.16C49.6045 15.16 50.0431 15.0387 50.3978 14.796C50.7618 14.5533 51.0371 14.2313 51.2238 13.83C51.4105 13.4193 51.5038 12.976 51.5038 12.5C51.5038 12.0147 51.4105 11.5713 51.2238 11.17C51.0371 10.7687 50.7618 10.4467 50.3978 10.204C50.0431 9.96133 49.6045 9.84 49.0818 9.84C48.5685 9.84 48.1251 9.96133 47.7518 10.204C47.3785 10.4467 47.0938 10.7687 46.8978 11.17C46.7018 11.5713 46.6038 12.0147 46.6038 12.5C46.6038 12.976 46.7018 13.4193 46.8978 13.83C47.0938 14.2313 47.3785 14.5533 47.7518 14.796C48.1251 15.0387 48.5685 15.16 49.0818 15.16ZM56.988 16.112C56.3067 16.112 55.7093 15.9533 55.196 15.636C54.692 15.3093 54.3 14.8707 54.02 14.32C53.74 13.7693 53.6 13.1627 53.6 12.5C53.6 11.828 53.74 11.2213 54.02 10.68C54.3 10.1293 54.692 9.69533 55.196 9.378C55.7093 9.05133 56.3067 8.888 56.988 8.888C57.5667 8.888 58.0613 9 58.472 9.224C58.892 9.448 59.2327 9.75133 59.494 10.134V6.2H60.544V16H59.494V14.88C59.2327 15.2533 58.892 15.552 58.472 15.776C58.0613 16 57.5667 16.112 56.988 16.112ZM57.128 15.16C57.6507 15.16 58.0893 15.0387 58.444 14.796C58.808 14.5533 59.0833 14.2313 59.27 13.83C59.4567 13.4193 59.55 12.976 59.55 12.5C59.55 12.0147 59.4567 11.5713 59.27 11.17C59.0833 10.7687 58.808 10.4467 58.444 10.204C58.0893 9.96133 57.6507 9.84 57.128 9.84C56.6147 9.84 56.1713 9.96133 55.798 10.204C55.4247 10.4467 55.14 10.7687 54.944 11.17C54.748 11.5713 54.65 12.0147 54.65 12.5C54.65 12.976 54.748 13.4193 54.944 13.83C55.14 14.2313 55.4247 14.5533 55.798 14.796C56.1713 15.0387 56.6147 15.16 57.128 15.16ZM63.9126 16L67.8466 6.732H69.1626L73.0966 16H71.9346L70.8006 13.312H66.2086L65.0746 16H63.9126ZM66.6146 12.346H70.3946L68.5046 7.824L66.6146 12.346ZM73.7702 18.772V9H74.8202V10.12C75.0815 9.73733 75.4175 9.43867 75.8282 9.224C76.2482 9 76.7475 8.888 77.3262 8.888C78.0075 8.888 78.6002 9.05133 79.1042 9.378C79.6175 9.69533 80.0142 10.1293 80.2942 10.68C80.5742 11.2213 80.7142 11.828 80.7142 12.5C80.7142 13.1627 80.5742 13.7693 80.2942 14.32C80.0142 14.8707 79.6175 15.3093 79.1042 15.636C78.6002 15.9533 78.0075 16.112 77.3262 16.112C76.7475 16.112 76.2482 16 75.8282 15.776C75.4175 15.5427 75.0815 15.2393 74.8202 14.866V18.772H73.7702ZM77.1862 15.16C77.7088 15.16 78.1522 15.0387 78.5162 14.796C78.8895 14.5533 79.1742 14.2313 79.3702 13.83C79.5662 13.4193 79.6642 12.976 79.6642 12.5C79.6642 12.0147 79.5662 11.5713 79.3702 11.17C79.1742 10.7687 78.8895 10.4467 78.5162 10.204C78.1522 9.96133 77.7088 9.84 77.1862 9.84C76.6728 9.84 76.2342 9.96133 75.8702 10.204C75.5062 10.4467 75.2308 10.7687 75.0442 11.17C74.8575 11.5713 74.7642 12.0147 74.7642 12.5C74.7642 12.976 74.8575 13.4193 75.0442 13.83C75.2308 14.2313 75.5062 14.5533 75.8702 14.796C76.2342 15.0387 76.6728 15.16 77.1862 15.16ZM81.8163 18.772V9H82.8663V10.12C83.1277 9.73733 83.4637 9.43867 83.8743 9.224C84.2943 9 84.7937 8.888 85.3723 8.888C86.0537 8.888 86.6463 9.05133 87.1503 9.378C87.6637 9.69533 88.0603 10.1293 88.3403 10.68C88.6203 11.2213 88.7603 11.828 88.7603 12.5C88.7603 13.1627 88.6203 13.7693 88.3403 14.32C88.0603 14.8707 87.6637 15.3093 87.1503 15.636C86.6463 15.9533 86.0537 16.112 85.3723 16.112C84.7937 16.112 84.2943 16 83.8743 15.776C83.4637 15.5427 83.1277 15.2393 82.8663 14.866V18.772H81.8163ZM85.2323 15.16C85.755 15.16 86.1983 15.0387 86.5623 14.796C86.9357 14.5533 87.2203 14.2313 87.4163 13.83C87.6123 13.4193 87.7103 12.976 87.7103 12.5C87.7103 12.0147 87.6123 11.5713 87.4163 11.17C87.2203 10.7687 86.9357 10.4467 86.5623 10.204C86.1983 9.96133 85.755 9.84 85.2323 9.84C84.719 9.84 84.2803 9.96133 83.9163 10.204C83.5523 10.4467 83.277 10.7687 83.0903 11.17C82.9037 11.5713 82.8103 12.0147 82.8103 12.5C82.8103 12.976 82.9037 13.4193 83.0903 13.83C83.277 14.2313 83.5523 14.5533 83.9163 14.796C84.2803 15.0387 84.719 15.16 85.2323 15.16ZM89.6945 10.428V9H91.0525V10.428H89.6945ZM89.6945 16V14.572H91.0525V16H89.6945Z" fill="#4A4A52"/>
<path d="M137.693 71.3869C137.693 73.5186 135.93 75.2453 133.75 75.2453H4.71755C2.53838 75.2453 0.769531 73.5186 0.769531 71.3869V40.6181C0.769531 38.4874 2.53838 36.7547 4.71755 36.7547H133.749C135.93 36.7547 137.692 38.4874 137.692 40.6181L137.693 71.3869Z" fill="black"/>
<path d="M133.333 36.8013C135.708 36.8013 137.64 38.685 137.64 41V71C137.64 73.315 135.708 75.1988 133.333 75.1988H5.12821C2.75385 75.1988 0.821795 73.315 0.821795 71V41C0.821795 38.685 2.75385 36.8013 5.12821 36.8013H133.333ZM133.333 36H5.12821C2.30897 36 0 38.2513 0 41V71C0 73.7488 2.30897 76 5.12821 76H133.333C136.153 76 138.462 73.7488 138.462 71V41C138.462 38.2513 136.153 36 133.333 36Z" fill="#A6A6A6"/>
<path d="M30.9002 55.784C30.8705 52.561 33.6069 50.993 33.732 50.92C32.1823 48.717 29.7802 48.416 28.9361 48.392C26.9187 48.185 24.9618 49.569 23.9341 49.569C22.8859 49.569 21.3033 48.412 19.5977 48.446C17.4028 48.479 15.3495 49.718 14.2233 51.642C11.8992 55.565 13.6325 61.33 15.8592 64.501C16.9731 66.054 18.2746 67.788 19.9782 67.727C21.6449 67.66 22.2674 66.691 24.2787 66.691C26.2715 66.691 26.8561 67.727 28.5936 67.688C30.3823 67.66 31.5084 66.128 32.5833 64.561C33.8705 62.781 34.3874 61.028 34.4079 60.938C34.3659 60.924 30.9341 59.647 30.9002 55.784Z" fill="white"/>
<path d="M27.6182 46.306C28.5146 45.213 29.1279 43.726 28.9577 42.217C27.6602 42.273 26.0377 43.092 25.1033 44.161C24.2767 45.103 23.5382 46.647 23.729 48.099C25.1864 48.205 26.6828 47.382 27.6182 46.306Z" fill="white"/>
<path d="M55.0206 67.504H52.6914L51.4155 63.595H46.9806L45.7652 67.504H43.4976L47.8914 54.196H50.6052L55.0206 67.504ZM51.0309 61.955L49.877 58.48C49.755 58.125 49.5263 57.289 49.1888 55.973H49.1478C49.0135 56.539 48.797 57.375 48.4996 58.48L47.3663 61.955H51.0309Z" fill="white"/>
<path d="M66.3207 62.5879C66.3207 64.2199 65.8684 65.5099 64.9638 66.4569C64.1535 67.2999 63.1474 67.7209 61.9464 67.7209C60.65 67.7209 59.7187 67.2669 59.1515 66.3589H59.1105V71.4139H56.9238V61.0669C56.9238 60.0409 56.8961 58.9879 56.8428 57.9079H58.7659L58.8879 59.4289H58.9289C59.6582 58.2829 60.7648 57.7109 62.25 57.7109C63.411 57.7109 64.3802 58.1579 65.1556 59.0529C65.933 59.9489 66.3207 61.1269 66.3207 62.5879ZM64.093 62.6659C64.093 61.7319 63.8776 60.9619 63.4448 60.3559C62.972 59.7239 62.3371 59.4079 61.5412 59.4079C61.0017 59.4079 60.5115 59.5839 60.0735 59.9309C59.6346 60.2809 59.3474 60.7379 59.213 61.3039C59.1453 61.5679 59.1115 61.7839 59.1115 61.9539V63.5539C59.1115 64.2519 59.331 64.8409 59.77 65.3219C60.2089 65.8029 60.7792 66.0429 61.4807 66.0429C62.3043 66.0429 62.9453 65.7329 63.4038 65.1149C63.8633 64.4959 64.093 63.6799 64.093 62.6659Z" fill="white"/>
<path d="M77.6405 62.5879C77.6405 64.2199 77.1882 65.5099 76.2826 66.4569C75.4733 67.2999 74.4672 67.7209 73.2661 67.7209C71.9697 67.7209 71.0384 67.2669 70.4723 66.3589H70.4313V71.4139H68.2446V61.0669C68.2446 60.0409 68.2169 58.9879 68.1636 57.9079H70.0867L70.2087 59.4289H70.2497C70.9779 58.2829 72.0846 57.7109 73.5708 57.7109C74.7308 57.7109 75.7 58.1579 76.4774 59.0529C77.2518 59.9489 77.6405 61.1269 77.6405 62.5879ZM75.4128 62.6659C75.4128 61.7319 75.1964 60.9619 74.7636 60.3559C74.2908 59.7239 73.6579 59.4079 72.861 59.4079C72.3205 59.4079 71.8313 59.5839 71.3923 59.9309C70.9533 60.2809 70.6672 60.7379 70.5328 61.3039C70.4661 61.5679 70.4313 61.7839 70.4313 61.9539V63.5539C70.4313 64.2519 70.6508 64.8409 71.0877 65.3219C71.5266 65.8019 72.0969 66.0429 72.8005 66.0429C73.6241 66.0429 74.2651 65.7329 74.7236 65.1149C75.1831 64.4959 75.4128 63.6799 75.4128 62.6659Z" fill="white"/>
<path d="M90.2966 63.772C90.2966 64.904 89.8935 65.825 89.0842 66.536C88.195 67.313 86.9571 67.701 85.3663 67.701C83.8976 67.701 82.7201 67.425 81.8289 66.872L82.3355 65.095C83.2955 65.661 84.3489 65.945 85.4966 65.945C86.3201 65.945 86.9612 65.763 87.4217 65.401C87.8801 65.039 88.1089 64.553 88.1089 63.947C88.1089 63.407 87.9201 62.952 87.5417 62.583C87.1653 62.214 86.5366 61.871 85.6586 61.554C83.2689 60.685 82.075 59.412 82.075 57.738C82.075 56.644 82.4935 55.747 83.3314 55.049C84.1663 54.35 85.2801 54.001 86.673 54.001C87.915 54.001 88.9468 54.212 89.7704 54.633L89.2237 56.371C88.4545 55.963 87.5848 55.759 86.6114 55.759C85.8422 55.759 85.2412 55.944 84.8104 56.312C84.4463 56.641 84.2637 57.042 84.2637 57.517C84.2637 58.043 84.4719 58.478 84.8904 58.82C85.2545 59.136 85.916 59.478 86.876 59.847C88.0504 60.308 88.913 60.847 89.4678 61.465C90.0207 62.081 90.2966 62.852 90.2966 63.772Z" fill="white"/>
<path d="M97.5266 59.508H95.1163V64.167C95.1163 65.352 95.5409 65.944 96.3922 65.944C96.783 65.944 97.1071 65.911 97.3635 65.845L97.424 67.464C96.9932 67.621 96.426 67.7 95.7235 67.7C94.8599 67.7 94.185 67.443 93.6978 66.93C93.2127 66.416 92.9686 65.554 92.9686 64.343V59.506H91.5327V57.906H92.9686V56.149L95.1163 55.517V57.906H97.5266V59.508Z" fill="white"/>
<path d="M108.402 62.6269C108.402 64.1019 107.969 65.3129 107.105 66.2599C106.2 67.2349 104.998 67.7209 103.499 67.7209C102.055 67.7209 100.905 67.2539 100.048 66.3199C99.1904 65.3859 98.7617 64.2069 98.7617 62.7859C98.7617 61.2989 99.2027 60.0809 100.088 59.1339C100.971 58.1859 102.163 57.7119 103.661 57.7119C105.105 57.7119 106.267 58.1789 107.144 59.1139C107.983 60.0209 108.402 61.1919 108.402 62.6269ZM106.133 62.6959C106.133 61.8109 105.939 61.0519 105.546 60.4189C105.088 59.6529 104.432 59.2709 103.583 59.2709C102.704 59.2709 102.037 59.6539 101.578 60.4189C101.185 61.0529 100.991 61.8239 100.991 62.7359C100.991 63.6209 101.185 64.3799 101.578 65.0119C102.051 65.7779 102.711 66.1599 103.564 66.1599C104.399 66.1599 105.054 65.7699 105.527 64.9919C105.93 64.3469 106.133 63.5799 106.133 62.6959Z" fill="white"/>
<path d="M115.509 59.7829C115.293 59.7439 115.062 59.7239 114.82 59.7239C114.051 59.7239 113.456 60.0069 113.038 60.5739C112.673 61.0739 112.491 61.7059 112.491 62.4689V67.5039H110.305L110.326 60.9299C110.326 59.8239 110.298 58.8169 110.244 57.9089H112.148L112.228 59.7449H112.289C112.52 59.1139 112.884 58.6059 113.382 58.2249C113.869 57.8819 114.395 57.7109 114.963 57.7109C115.165 57.7109 115.347 57.7249 115.509 57.7499V59.7829Z" fill="white"/>
<path d="M125.289 62.252C125.289 62.634 125.263 62.956 125.209 63.219H118.649C118.674 64.167 118.991 64.892 119.6 65.392C120.153 65.839 120.868 66.063 121.746 66.063C122.717 66.063 123.604 65.912 124.4 65.609L124.743 67.089C123.812 67.485 122.712 67.682 121.444 67.682C119.917 67.682 118.719 67.244 117.848 66.369C116.978 65.494 116.542 64.319 116.542 62.845C116.542 61.398 116.947 60.193 117.758 59.232C118.608 58.206 119.755 57.693 121.199 57.693C122.618 57.693 123.692 58.206 124.421 59.232C124.998 60.047 125.289 61.055 125.289 62.252ZM123.204 61.699C123.218 61.067 123.075 60.521 122.779 60.06C122.4 59.467 121.819 59.171 121.036 59.171C120.321 59.171 119.74 59.46 119.296 60.04C118.932 60.501 118.715 61.054 118.649 61.698H123.204V61.699Z" fill="white"/>
<path d="M50.3084 46.0091C50.3084 47.1861 49.9464 48.0721 49.2233 48.6671C48.5536 49.2161 47.6018 49.4911 46.3689 49.4911C45.7577 49.4911 45.2346 49.4651 44.7966 49.4131V42.9821C45.3679 42.8921 45.9833 42.8461 46.6479 42.8461C47.8223 42.8461 48.7074 43.0951 49.3043 43.5931C49.973 44.1561 50.3084 44.9611 50.3084 46.0091ZM49.1751 46.0381C49.1751 45.2751 48.9679 44.6901 48.5536 44.2821C48.1392 43.8751 47.5341 43.6711 46.7371 43.6711C46.3987 43.6711 46.1105 43.6931 45.8715 43.7391V48.6281C46.0038 48.6481 46.2459 48.6571 46.5977 48.6571C47.4202 48.6571 48.0551 48.4341 48.5023 47.9881C48.9495 47.5421 49.1751 46.8921 49.1751 46.0381Z" fill="white"/>
<path d="M56.3174 47.037C56.3174 47.762 56.1051 48.356 55.6805 48.822C55.2354 49.301 54.6456 49.54 53.9092 49.54C53.1995 49.54 52.6343 49.311 52.2128 48.851C51.7923 48.392 51.582 47.813 51.582 47.115C51.582 46.385 51.7984 45.786 52.2333 45.321C52.6682 44.856 53.2528 44.623 53.9892 44.623C54.699 44.623 55.2692 44.852 55.701 45.311C56.1113 45.757 56.3174 46.333 56.3174 47.037ZM55.2025 47.071C55.2025 46.636 55.1061 46.263 54.9143 45.952C54.6887 45.576 54.3677 45.388 53.9502 45.388C53.5184 45.388 53.1902 45.576 52.9646 45.952C52.7718 46.263 52.6764 46.642 52.6764 47.09C52.6764 47.525 52.7728 47.898 52.9646 48.209C53.1974 48.585 53.5215 48.773 53.94 48.773C54.3502 48.773 54.6723 48.582 54.9041 48.199C55.1031 47.882 55.2025 47.506 55.2025 47.071Z" fill="white"/>
<path d="M64.375 44.719L62.8622 49.433H61.8776L61.2509 47.386C61.0919 46.875 60.9627 46.367 60.8622 45.863H60.8427C60.7494 46.381 60.6201 46.888 60.454 47.386L59.7883 49.433H58.7924L57.3699 44.719H58.4745L59.0212 46.96C59.1535 47.49 59.2622 47.995 59.3494 48.473H59.3688C59.4488 48.079 59.5812 47.577 59.7678 46.97L60.454 44.72H61.3299L61.9873 46.922C62.1463 47.459 62.2755 47.976 62.375 48.474H62.4047C62.4776 47.989 62.5873 47.472 62.7329 46.922L63.3196 44.72H64.375V44.719Z" fill="white"/>
<path d="M69.9469 49.4331H68.8721V46.7331C68.8721 45.9011 68.5479 45.4851 67.8977 45.4851C67.5787 45.4851 67.3213 45.5991 67.1213 45.8281C66.9233 46.0571 66.8228 46.3271 66.8228 46.6361V49.4321H65.748V46.0661C65.748 45.6521 65.7346 45.2031 65.709 44.7171H66.6536L66.7039 45.4541H66.7336C66.8587 45.2251 67.0454 45.0361 67.2905 44.8851C67.5818 44.7091 67.908 44.6201 68.2649 44.6201C68.7162 44.6201 69.0915 44.7621 69.39 45.0471C69.7613 45.3961 69.9469 45.9171 69.9469 46.6091V49.4331Z" fill="white"/>
<path d="M72.9115 49.4331H71.8376V42.5561H72.9115V49.4331Z" fill="white"/>
<path d="M79.2398 47.037C79.2398 47.762 79.0275 48.356 78.6029 48.822C78.1577 49.301 77.567 49.54 76.8316 49.54C76.1208 49.54 75.5557 49.311 75.1352 48.851C74.7146 48.392 74.5044 47.813 74.5044 47.115C74.5044 46.385 74.7208 45.786 75.1557 45.321C75.5906 44.856 76.1752 44.623 76.9105 44.623C77.6213 44.623 78.1905 44.852 78.6234 45.311C79.0336 45.757 79.2398 46.333 79.2398 47.037ZM78.1239 47.071C78.1239 46.636 78.0275 46.263 77.8357 45.952C77.6111 45.576 77.289 45.388 76.8726 45.388C76.4398 45.388 76.1116 45.576 75.887 45.952C75.6941 46.263 75.5988 46.642 75.5988 47.09C75.5988 47.525 75.6952 47.898 75.887 48.209C76.1198 48.585 76.4439 48.773 76.8623 48.773C77.2726 48.773 77.5936 48.582 77.8254 48.199C78.0254 47.882 78.1239 47.506 78.1239 47.071Z" fill="white"/>
<path d="M84.4421 49.433H83.477L83.397 48.89H83.3673C83.037 49.323 82.5662 49.54 81.9549 49.54C81.4985 49.54 81.1293 49.397 80.8514 49.113C80.5991 48.855 80.4729 48.534 80.4729 48.153C80.4729 47.577 80.7191 47.138 81.2144 46.834C81.7088 46.53 82.4042 46.381 83.2996 46.388V46.3C83.2996 45.679 82.9652 45.369 82.2955 45.369C81.8185 45.369 81.398 45.486 81.035 45.718L80.8165 45.03C81.2657 44.759 81.8206 44.623 82.475 44.623C83.7385 44.623 84.3724 45.273 84.3724 46.573V48.309C84.3724 48.78 84.396 49.155 84.4421 49.433ZM83.3262 47.813V47.086C82.1406 47.066 81.5478 47.383 81.5478 48.036C81.5478 48.282 81.6155 48.466 81.7539 48.589C81.8924 48.712 82.0688 48.773 82.2791 48.773C82.515 48.773 82.7355 48.7 82.9365 48.555C83.1385 48.409 83.2626 48.224 83.3088 47.997C83.3201 47.946 83.3262 47.884 83.3262 47.813Z" fill="white"/>
<path d="M90.549 49.4331H89.5951L89.5449 48.6761H89.5151C89.2105 49.2521 88.6915 49.5401 87.9623 49.5401C87.3797 49.5401 86.8946 49.3171 86.51 48.8711C86.1254 48.4251 85.9336 47.8461 85.9336 47.1351C85.9336 46.3721 86.1418 45.7541 86.5603 45.2821C86.9654 44.8421 87.4618 44.6221 88.0526 44.6221C88.7018 44.6221 89.1562 44.8351 89.4146 45.2621H89.4351V42.5561H90.511V48.1631C90.511 48.6221 90.5233 49.0451 90.549 49.4331ZM89.4351 47.4451V46.6591C89.4351 46.5231 89.4249 46.4131 89.4054 46.3291C89.3449 46.0771 89.2146 45.8651 89.0167 45.6941C88.8167 45.5231 88.5756 45.4371 88.2977 45.4371C87.8967 45.4371 87.5828 45.5921 87.352 45.9031C87.1233 46.2141 87.0074 46.6111 87.0074 47.0961C87.0074 47.5621 87.1172 47.9401 87.3377 48.2311C87.5705 48.5411 87.8844 48.6961 88.2772 48.6961C88.63 48.6961 88.9121 48.5671 89.1264 48.3081C89.3336 48.0691 89.4351 47.7811 89.4351 47.4451Z" fill="white"/>
<path d="M99.7427 47.037C99.7427 47.762 99.5304 48.356 99.1058 48.822C98.6607 49.301 98.0719 49.54 97.3345 49.54C96.6258 49.54 96.0607 49.311 95.6381 48.851C95.2176 48.392 95.0073 47.813 95.0073 47.115C95.0073 46.385 95.2237 45.786 95.6586 45.321C96.0935 44.856 96.6781 44.623 97.4155 44.623C98.1242 44.623 98.6955 44.852 99.1263 45.311C99.5366 45.757 99.7427 46.333 99.7427 47.037ZM98.6289 47.071C98.6289 46.636 98.5324 46.263 98.3407 45.952C98.114 45.576 97.794 45.388 97.3755 45.388C96.9448 45.388 96.6166 45.576 96.3899 45.952C96.1971 46.263 96.1017 46.642 96.1017 47.09C96.1017 47.525 96.1981 47.898 96.3899 48.209C96.6227 48.585 96.9468 48.773 97.3653 48.773C97.7755 48.773 98.0986 48.582 98.3304 48.199C98.5284 47.882 98.6289 47.506 98.6289 47.071Z" fill="white"/>
<path d="M105.522 49.4331H104.448V46.7331C104.448 45.9011 104.124 45.4851 103.472 45.4851C103.153 45.4851 102.896 45.5991 102.697 45.8281C102.498 46.0571 102.399 46.3271 102.399 46.6361V49.4321H101.323V46.0661C101.323 45.6521 101.31 45.2031 101.285 44.7171H102.228L102.279 45.4541H102.308C102.434 45.2251 102.621 45.0361 102.865 44.8851C103.157 44.7091 103.483 44.6201 103.841 44.6201C104.291 44.6201 104.666 44.7621 104.965 45.0471C105.337 45.3961 105.522 45.9171 105.522 46.6091V49.4331Z" fill="white"/>
<path d="M112.755 45.504H111.572V47.794C111.572 48.376 111.782 48.667 112.198 48.667C112.391 48.667 112.551 48.651 112.677 48.618L112.705 49.413C112.493 49.491 112.214 49.53 111.87 49.53C111.445 49.53 111.115 49.404 110.876 49.152C110.636 48.9 110.517 48.476 110.517 47.881V45.504H109.811V44.719H110.517V43.855L111.571 43.545V44.718H112.754V45.504H112.755Z" fill="white"/>
<path d="M118.446 49.4331H117.37V46.7531C117.37 45.9081 117.046 45.4851 116.396 45.4851C115.898 45.4851 115.557 45.7301 115.371 46.2201C115.339 46.3231 115.32 46.4491 115.32 46.5971V49.4321H114.247V42.5561H115.32V45.3971H115.341C115.679 44.8801 116.165 44.6221 116.793 44.6221C117.238 44.6221 117.607 44.7641 117.899 45.0491C118.263 45.4041 118.446 45.9321 118.446 46.6301V49.4331Z" fill="white"/>
<path d="M124.316 46.853C124.316 47.041 124.301 47.199 124.276 47.328H121.052C121.066 47.794 121.22 48.149 121.519 48.395C121.791 48.615 122.143 48.725 122.574 48.725C123.051 48.725 123.486 48.651 123.878 48.502L124.046 49.23C123.587 49.424 123.048 49.521 122.423 49.521C121.675 49.521 121.085 49.306 120.658 48.876C120.229 48.446 120.017 47.869 120.017 47.145C120.017 46.434 120.215 45.842 120.614 45.37C121.03 44.866 121.594 44.614 122.304 44.614C123 44.614 123.528 44.866 123.885 45.37C124.173 45.77 124.316 46.265 124.316 46.853ZM123.29 46.582C123.298 46.271 123.227 46.003 123.082 45.777C122.895 45.486 122.611 45.34 122.226 45.34C121.876 45.34 121.589 45.482 121.371 45.767C121.192 45.994 121.087 46.265 121.052 46.582H123.29Z" fill="white"/>
<path d="M290.611 76H162.583C159.767 76 157.461 73.7487 157.461 71V41C157.461 38.2513 159.767 36 162.583 36H290.611C293.427 36 295.733 38.2513 295.733 41V71C295.733 73.7487 293.427 76 290.611 76Z" fill="black"/>
<path d="M290.611 36.8013C292.983 36.8013 294.912 38.685 294.912 41V71C294.912 73.315 292.983 75.1988 290.611 75.1988H162.583C160.211 75.1988 158.282 73.315 158.282 71V41C158.282 38.685 160.211 36.8013 162.583 36.8013H290.611ZM290.611 36H162.583C159.767 36 157.461 38.2513 157.461 41V71C157.461 73.7487 159.767 76 162.583 76H290.611C293.427 76 295.733 73.7487 295.733 71V41C295.733 38.2513 293.427 36 290.611 36Z" fill="#A6A6A6"/>
<path d="M206.028 46.2437C206.028 47.0787 205.772 47.7475 205.268 48.2462C204.688 48.8375 203.932 49.135 203.007 49.135C202.122 49.135 201.367 48.8325 200.747 48.2362C200.126 47.6312 199.816 46.8887 199.816 46C199.816 45.1112 200.126 44.3687 200.747 43.7687C201.367 43.1675 202.122 42.865 203.007 42.865C203.447 42.865 203.867 42.9537 204.268 43.1187C204.667 43.285 204.992 43.51 205.228 43.7875L204.693 44.315C204.282 43.8412 203.722 43.6075 203.007 43.6075C202.361 43.6075 201.802 43.8275 201.327 44.2712C200.857 44.7162 200.621 45.2925 200.621 46C200.621 46.7075 200.857 47.2887 201.327 47.7337C201.802 48.1725 202.361 48.3975 203.007 48.3975C203.692 48.3975 204.268 48.1725 204.722 47.7287C205.022 47.435 205.192 47.03 205.237 46.5125H203.007V45.79H205.982C206.018 45.9462 206.028 46.0975 206.028 46.2437Z" fill="white" stroke="white" stroke-width="0.133858" stroke-miterlimit="10"/>
<path d="M210.748 43.7388H207.954V45.6388H210.473V46.3613H207.954V48.2613H210.748V48.9975H207.162V43.0025H210.748V43.7388Z" fill="white" stroke="white" stroke-width="0.133858" stroke-miterlimit="10"/>
<path d="M214.08 48.9975H213.289V43.7388H211.575V43.0025H215.796V43.7388H214.08V48.9975Z" fill="white" stroke="white" stroke-width="0.133858" stroke-miterlimit="10"/>
<path d="M218.85 48.9975V43.0025H219.64V48.9975H218.85Z" fill="white" stroke="white" stroke-width="0.133858" stroke-miterlimit="10"/>
<path d="M223.141 48.9975H222.356V43.7388H220.636V43.0025H224.862V43.7388H223.141V48.9975Z" fill="white" stroke="white" stroke-width="0.133858" stroke-miterlimit="10"/>
<path d="M232.854 48.2262C232.248 48.8325 231.498 49.135 230.603 49.135C229.703 49.135 228.953 48.8325 228.347 48.2262C227.743 47.6212 227.442 46.8787 227.442 46C227.442 45.1212 227.743 44.3787 228.347 43.7737C228.953 43.1675 229.703 42.865 230.603 42.865C231.493 42.865 232.243 43.1675 232.849 43.7787C233.458 44.3887 233.759 45.1262 233.759 46C233.759 46.8787 233.458 47.6212 232.854 48.2262ZM228.932 47.7237C229.388 48.1725 229.942 48.3975 230.603 48.3975C231.258 48.3975 231.818 48.1725 232.269 47.7237C232.723 47.275 232.954 46.6987 232.954 46C232.954 45.3012 232.723 44.725 232.269 44.2762C231.818 43.8275 231.258 43.6025 230.603 43.6025C229.942 43.6025 229.388 43.8275 228.932 44.2762C228.478 44.725 228.247 45.3012 228.247 46C228.247 46.6987 228.478 47.275 228.932 47.7237Z" fill="white" stroke="white" stroke-width="0.133858" stroke-miterlimit="10"/>
<path d="M234.869 48.9975V43.0025H235.829L238.815 47.665H238.849L238.815 46.5125V43.0025H239.604V48.9975H238.78L235.653 44.105H235.619L235.653 45.2625V48.9975H234.869Z" fill="white" stroke="white" stroke-width="0.133858" stroke-miterlimit="10"/>
<path d="M227.247 57.7525C224.841 57.7525 222.876 59.54 222.876 62.0063C222.876 64.4525 224.841 66.2588 227.247 66.2588C229.658 66.2588 231.623 64.4525 231.623 62.0063C231.623 59.54 229.658 57.7525 227.247 57.7525ZM227.247 64.5838C225.927 64.5838 224.792 63.52 224.792 62.0063C224.792 60.4725 225.927 59.4275 227.247 59.4275C228.567 59.4275 229.708 60.4725 229.708 62.0063C229.708 63.52 228.567 64.5838 227.247 64.5838ZM217.71 57.7525C215.299 57.7525 213.339 59.54 213.339 62.0063C213.339 64.4525 215.299 66.2588 217.71 66.2588C220.12 66.2588 222.081 64.4525 222.081 62.0063C222.081 59.54 220.12 57.7525 217.71 57.7525ZM217.71 64.5838C216.389 64.5838 215.25 63.52 215.25 62.0063C215.25 60.4725 216.389 59.4275 217.71 59.4275C219.03 59.4275 220.166 60.4725 220.166 62.0063C220.166 63.52 219.03 64.5838 217.71 64.5838ZM206.362 59.0563V60.8638H210.783C210.653 61.8738 210.308 62.6163 209.778 63.1338C209.132 63.7588 208.127 64.4525 206.362 64.4525C203.641 64.4525 201.511 62.3088 201.511 59.6525C201.511 56.9963 203.641 54.8525 206.362 54.8525C207.833 54.8525 208.903 55.4138 209.693 56.1413L210.998 54.8675C209.893 53.8375 208.423 53.0463 206.362 53.0463C202.631 53.0463 199.496 56.01 199.496 59.6525C199.496 63.295 202.631 66.2588 206.362 66.2588C208.378 66.2588 209.893 65.6138 211.083 64.4038C212.304 63.2125 212.684 61.5375 212.684 60.185C212.684 59.765 212.648 59.3788 212.584 59.0563H206.362ZM252.767 60.4575C252.407 59.5063 251.297 57.7525 249.036 57.7525C246.796 57.7525 244.93 59.4763 244.93 62.0063C244.93 64.3888 246.777 66.2588 249.251 66.2588C251.253 66.2588 252.407 65.0675 252.882 64.3738L251.397 63.4075C250.902 64.115 250.227 64.5838 249.251 64.5838C248.282 64.5838 247.587 64.15 247.142 63.295L252.968 60.9413L252.767 60.4575ZM246.827 61.8738C246.777 60.2338 248.131 59.3938 249.102 59.3938C249.862 59.3938 250.507 59.765 250.723 60.2963L246.827 61.8738ZM242.091 66H244.006V53.5H242.091V66ZM238.954 58.7H238.89C238.46 58.2025 237.639 57.7525 236.6 57.7525C234.418 57.7525 232.423 59.6225 232.423 62.02C232.423 64.4038 234.418 66.2588 236.6 66.2588C237.639 66.2588 238.46 65.805 238.89 65.2925H238.954V65.9025C238.954 67.5288 238.064 68.4025 236.629 68.4025C235.459 68.4025 234.733 67.5775 234.433 66.8838L232.768 67.5625C233.248 68.69 234.519 70.0775 236.629 70.0775C238.875 70.0775 240.77 68.7875 240.77 65.6488V58.0113H238.954V58.7ZM236.764 64.5838C235.444 64.5838 234.339 63.505 234.339 62.02C234.339 60.5213 235.444 59.4275 236.764 59.4275C238.064 59.4275 239.09 60.5213 239.09 62.02C239.09 63.505 238.064 64.5838 236.764 64.5838ZM261.734 53.5H257.153V66H259.064V61.2638H261.734C263.856 61.2638 265.936 59.765 265.936 57.3813C265.936 54.9988 263.851 53.5 261.734 53.5ZM261.784 59.525H259.064V55.2388H261.784C263.21 55.2388 264.025 56.395 264.025 57.3813C264.025 58.3488 263.21 59.525 261.784 59.525ZM273.592 57.7288C272.212 57.7288 270.777 58.3238 270.187 59.6425L271.882 60.3363C272.247 59.6425 272.918 59.4175 273.627 59.4175C274.618 59.4175 275.623 59.9988 275.638 61.025V61.1563C275.293 60.9613 274.553 60.6725 273.642 60.6725C271.817 60.6725 269.956 61.6538 269.956 63.485C269.956 65.16 271.452 66.2388 273.133 66.2388C274.418 66.2388 275.127 65.6725 275.573 65.0138H275.638V65.98H277.483V61.185C277.483 58.9688 275.788 57.7288 273.592 57.7288ZM273.362 64.5788C272.737 64.5788 271.866 64.2763 271.866 63.52C271.866 62.5525 272.952 62.1813 273.892 62.1813C274.733 62.1813 275.127 62.3625 275.638 62.6013C275.488 63.7588 274.468 64.5788 273.362 64.5788ZM284.205 58.0025L282.009 63.4213H281.944L279.674 58.0025H277.614L281.024 65.575L279.078 69.7888H281.074L286.33 58.0025H284.205ZM266.986 66H268.901V53.5H266.986V66Z" fill="white"/>
<path d="M168.149 43.5388C167.848 43.8463 167.674 44.3251 167.674 44.9451V67.0601C167.674 67.6801 167.848 68.1588 168.149 68.4663L168.224 68.5338L180.916 56.1463V55.8538L168.224 43.4663L168.149 43.5388Z" fill="url(#paint0_linear_4818_4633)"/>
<path d="M185.143 60.2775L180.917 56.1462V55.8537L185.148 51.7225L185.243 51.7762L190.254 54.56C191.684 55.35 191.684 56.65 190.254 57.445L185.243 60.2237L185.143 60.2775Z" fill="url(#paint1_linear_4818_4633)"/>
<path d="M185.243 60.2238L180.916 56L168.149 68.4663C168.624 68.9538 169.399 69.0125 170.28 68.525L185.243 60.2238Z" fill="url(#paint2_linear_4818_4633)"/>
<path d="M185.243 51.7763L170.28 43.475C169.399 42.9925 168.624 43.0512 168.149 43.5387L180.916 56L185.243 51.7763Z" fill="url(#paint3_linear_4818_4633)"/>
<defs>
<linearGradient id="paint0_linear_4818_4633" x1="179.789" y1="67.2904" x2="163.012" y2="50.1062" gradientUnits="userSpaceOnUse">
<stop stop-color="#00A0FF"/>
<stop offset="0.0066" stop-color="#00A1FF"/>
<stop offset="0.2601" stop-color="#00BEFF"/>
<stop offset="0.5122" stop-color="#00D2FF"/>
<stop offset="0.7604" stop-color="#00DFFF"/>
<stop offset="1" stop-color="#00E3FF"/>
</linearGradient>
<linearGradient id="paint1_linear_4818_4633" x1="192.116" y1="55.9986" x2="167.333" y2="55.9986" gradientUnits="userSpaceOnUse">
<stop stop-color="#FFE000"/>
<stop offset="0.4087" stop-color="#FFBD00"/>
<stop offset="0.7754" stop-color="#FFA500"/>
<stop offset="1" stop-color="#FF9C00"/>
</linearGradient>
<linearGradient id="paint2_linear_4818_4633" x1="182.89" y1="53.7039" x2="160.138" y2="30.4009" gradientUnits="userSpaceOnUse">
<stop stop-color="#FF3A44"/>
<stop offset="1" stop-color="#C31162"/>
</linearGradient>
<linearGradient id="paint3_linear_4818_4633" x1="164.936" y1="75.8238" x2="175.095" y2="65.418" gradientUnits="userSpaceOnUse">
<stop stop-color="#32A071"/>
<stop offset="0.0685" stop-color="#2DA771"/>
<stop offset="0.4762" stop-color="#15CF74"/>
<stop offset="0.8009" stop-color="#06E775"/>
<stop offset="1" stop-color="#00F076"/>
</linearGradient>
</defs>
</svg>
